<svg width="202" height="62" viewBox="0 0 202 62" fill="none" xmlns="http://www.w3.org/2000/svg">
<circle cx="25" cy="47" r="15" fill="#A13E7D"/>
<path d="M36.5 47C36.5 53.3513 31.3513 58.5 25 58.5C18.6487 58.5 13.5 53.3513 13.5 47C13.5 40.6487 18.6487 35.5 25 35.5C31.3513 35.5 36.5 40.6487 36.5 47Z" fill="#A13E7D" stroke="white" stroke-width="2"/>
<path d="M77.5 47C77.5 53.3513 72.3513 58.5 66 58.5C59.6487 58.5 54.5 53.3513 54.5 47C54.5 40.6487 59.6487 35.5 66 35.5C72.3513 35.5 77.5 40.6487 77.5 47Z" fill="#4CBEFF" stroke="white" stroke-width="2"/>
<path d="M118.5 47C118.5 53.3513 113.351 58.5 107 58.5C100.649 58.5 95.5 53.3513 95.5 47C95.5 40.6487 100.649 35.5 107 35.5C113.351 35.5 118.5 40.6487 118.5 47Z" fill="#A93BED" stroke="white" stroke-width="2"/>
<path d="M159.5 47C159.5 53.3513 154.351 58.5 148 58.5C141.649 58.5 136.5 53.3513 136.5 47C136.5 40.6487 141.649 35.5 148 35.5C154.351 35.5 159.5 40.6487 159.5 47Z" fill="#BFED3B" stroke="white" stroke-width="2"/>
<path d="M200.5 47C200.5 53.3513 195.351 58.5 189 58.5C182.649 58.5 177.5 53.3513 177.5 47C177.5 40.6487 182.649 35.5 189 35.5C195.351 35.5 200.5 40.6487 200.5 47Z" fill="#23192E" stroke="white" stroke-width="2"/>
<path d="M19.8105 9.03711C18.6712 9.03711 17.7891 9.4668 17.1641 10.3262C16.5391 11.179 16.2266 12.3704 16.2266 13.9004C16.2266 17.084 17.4212 18.6758 19.8105 18.6758C20.8132 18.6758 22.0273 18.4251 23.4531 17.9238V20.4629C22.2812 20.9512 20.9727 21.1953 19.5273 21.1953C17.4505 21.1953 15.862 20.5671 14.7617 19.3105C13.6615 18.0475 13.1113 16.2376 13.1113 13.8809C13.1113 12.3965 13.3815 11.0977 13.9219 9.98438C14.4622 8.86458 15.237 8.00846 16.2461 7.41602C17.2617 6.81706 18.4499 6.51758 19.8105 6.51758C21.1973 6.51758 22.5905 6.85286 23.9902 7.52344L23.0137 9.98438C22.4798 9.73047 21.9427 9.50911 21.4023 9.32031C20.862 9.13151 20.3314 9.03711 19.8105 9.03711ZM40.459 13.8418C40.459 16.2051 39.873 18.0215 38.7012 19.291C37.5293 20.5605 35.8496 21.1953 33.6621 21.1953C31.4746 21.1953 29.7949 20.5605 28.623 19.291C27.4512 18.0215 26.8652 16.1986 26.8652 13.8223C26.8652 11.446 27.4512 9.63281 28.623 8.38281C29.8014 7.1263 31.4876 6.49805 33.6816 6.49805C35.8757 6.49805 37.5521 7.12956 38.7109 8.39258C39.8763 9.6556 40.459 11.472 40.459 13.8418ZM30.0391 13.8418C30.0391 15.4368 30.3418 16.638 30.9473 17.4453C31.5527 18.2526 32.4577 18.6562 33.6621 18.6562C36.0775 18.6562 37.2852 17.0514 37.2852 13.8418C37.2852 10.6257 36.084 9.01758 33.6816 9.01758C32.4772 9.01758 31.569 9.42448 30.957 10.2383C30.3451 11.0456 30.0391 12.2467 30.0391 13.8418ZM44.418 21V6.72266H47.4453V18.5H53.2363V21H44.418ZM69.6855 13.8418C69.6855 16.2051 69.0996 18.0215 67.9277 19.291C66.7559 20.5605 65.0762 21.1953 62.8887 21.1953C60.7012 21.1953 59.0215 20.5605 57.8496 19.291C56.6777 18.0215 56.0918 16.1986 56.0918 13.8223C56.0918 11.446 56.6777 9.63281 57.8496 8.38281C59.028 7.1263 60.7142 6.49805 62.9082 6.49805C65.1022 6.49805 66.7786 7.12956 67.9375 8.39258C69.1029 9.6556 69.6855 11.472 69.6855 13.8418ZM59.2656 13.8418C59.2656 15.4368 59.5684 16.638 60.1738 17.4453C60.7793 18.2526 61.6842 18.6562 62.8887 18.6562C65.304 18.6562 66.5117 17.0514 66.5117 13.8418C66.5117 10.6257 65.3105 9.01758 62.9082 9.01758C61.7038 9.01758 60.7956 9.42448 60.1836 10.2383C59.5716 11.0456 59.2656 12.2467 59.2656 13.8418ZM76.6719 13.0605H77.6484C78.6055 13.0605 79.3118 12.901 79.7676 12.582C80.2233 12.263 80.4512 11.7617 80.4512 11.0781C80.4512 10.401 80.2168 9.91927 79.748 9.63281C79.2858 9.34635 78.5664 9.20312 77.5898 9.20312H76.6719V13.0605ZM76.6719 15.5215V21H73.6445V6.72266H77.8047C79.7448 6.72266 81.1803 7.07747 82.1113 7.78711C83.0423 8.49023 83.5078 9.5612 83.5078 11C83.5078 11.8398 83.2767 12.5885 82.8145 13.2461C82.3522 13.8971 81.6979 14.4082 80.8516 14.7793C83 17.9889 84.3997 20.0625 85.0508 21H81.6914L78.2832 15.5215H76.6719Z" fill="#444444"/>
</svg>
